<mxfile host="app.diagrams.net" modified="2024-03-06T01:24:44.432Z" agent="Mozilla/5.0 (Windows NT 10.0; Win64; x64; rv:122.0) Gecko/20100101 Firefox/122.0" etag="jpSEtpN-8CWC7XHn7143" version="23.1.5" type="device">
  <diagram name="Page-1" id="nZkPP2YXj4hcI9X0D7Jn">
    <mxGraphModel dx="2074" dy="1095" grid="1" gridSize="10" guides="1" tooltips="1" connect="1" arrows="1" fold="1" page="1" pageScale="1" pageWidth="850" pageHeight="1100" math="0" shadow="0">
      <root>
        <mxCell id="0" />
        <mxCell id="1" parent="0" />
        <mxCell id="h_ossI_MH9fFPqENP40c-4" value="&lt;div&gt;Table&lt;/div&gt;" style="rounded=0;whiteSpace=wrap;html=1;" parent="1" vertex="1">
          <mxGeometry x="645" y="575" width="110" height="170" as="geometry" />
        </mxCell>
        <mxCell id="h_ossI_MH9fFPqENP40c-28" value="" style="ellipse;whiteSpace=wrap;html=1;aspect=fixed;fillColor=#b0e3e6;strokeColor=#0e8088;" parent="1" vertex="1">
          <mxGeometry x="680" y="840" width="40" height="40" as="geometry" />
        </mxCell>
        <mxCell id="h_ossI_MH9fFPqENP40c-29" value="" style="ellipse;whiteSpace=wrap;html=1;aspect=fixed;fillColor=#e51400;fontColor=#ffffff;strokeColor=#B20000;" parent="1" vertex="1">
          <mxGeometry x="760" y="840" width="40" height="40" as="geometry" />
        </mxCell>
        <mxCell id="h_ossI_MH9fFPqENP40c-30" value="" style="ellipse;whiteSpace=wrap;html=1;aspect=fixed;fillColor=#0050ef;fontColor=#ffffff;strokeColor=#001DBC;" parent="1" vertex="1">
          <mxGeometry x="840" y="840" width="40" height="40" as="geometry" />
        </mxCell>
        <mxCell id="h_ossI_MH9fFPqENP40c-32" value="" style="ellipse;whiteSpace=wrap;html=1;aspect=fixed;fillColor=#e51400;fontColor=#ffffff;strokeColor=#B20000;" parent="1" vertex="1">
          <mxGeometry x="920" y="840" width="40" height="40" as="geometry" />
        </mxCell>
        <mxCell id="h_ossI_MH9fFPqENP40c-33" value="" style="ellipse;whiteSpace=wrap;html=1;aspect=fixed;fillColor=#0050ef;fontColor=#ffffff;strokeColor=#001DBC;" parent="1" vertex="1">
          <mxGeometry x="1000" y="840" width="40" height="40" as="geometry" />
        </mxCell>
        <mxCell id="h_ossI_MH9fFPqENP40c-34" value="" style="ellipse;whiteSpace=wrap;html=1;aspect=fixed;fillColor=#0050ef;fontColor=#ffffff;strokeColor=#001DBC;" parent="1" vertex="1">
          <mxGeometry x="1060" y="820" width="40" height="40" as="geometry" />
        </mxCell>
        <mxCell id="h_ossI_MH9fFPqENP40c-36" value="" style="ellipse;whiteSpace=wrap;html=1;aspect=fixed;fillColor=#0050ef;fontColor=#ffffff;strokeColor=#001DBC;" parent="1" vertex="1">
          <mxGeometry x="900" y="780" width="40" height="40" as="geometry" />
        </mxCell>
        <mxCell id="h_ossI_MH9fFPqENP40c-37" value="" style="ellipse;whiteSpace=wrap;html=1;aspect=fixed;fillColor=#d80073;fontColor=#ffffff;strokeColor=#A50040;" parent="1" vertex="1">
          <mxGeometry x="860" y="720" width="40" height="40" as="geometry" />
        </mxCell>
        <mxCell id="h_ossI_MH9fFPqENP40c-42" value="" style="ellipse;whiteSpace=wrap;html=1;aspect=fixed;fillColor=#0050ef;fontColor=#ffffff;strokeColor=#001DBC;" parent="1" vertex="1">
          <mxGeometry x="910" y="495" width="40" height="40" as="geometry" />
        </mxCell>
        <mxCell id="h_ossI_MH9fFPqENP40c-43" value="" style="ellipse;whiteSpace=wrap;html=1;aspect=fixed;fillColor=#0050ef;fontColor=#ffffff;strokeColor=#001DBC;" parent="1" vertex="1">
          <mxGeometry x="1120" y="780" width="40" height="40" as="geometry" />
        </mxCell>
        <mxCell id="h_ossI_MH9fFPqENP40c-44" value="" style="ellipse;whiteSpace=wrap;html=1;aspect=fixed;fillColor=#0050ef;fontColor=#ffffff;strokeColor=#001DBC;" parent="1" vertex="1">
          <mxGeometry x="1170" y="720" width="40" height="40" as="geometry" />
        </mxCell>
        <mxCell id="h_ossI_MH9fFPqENP40c-45" value="" style="ellipse;whiteSpace=wrap;html=1;aspect=fixed;fillColor=#008a00;fontColor=#ffffff;strokeColor=#005700;" parent="1" vertex="1">
          <mxGeometry x="1180" y="640" width="40" height="40" as="geometry" />
        </mxCell>
        <mxCell id="h_ossI_MH9fFPqENP40c-47" value="" style="ellipse;whiteSpace=wrap;html=1;aspect=fixed;fillColor=#0050ef;fontColor=#ffffff;strokeColor=#001DBC;" parent="1" vertex="1">
          <mxGeometry x="1120" y="500" width="40" height="40" as="geometry" />
        </mxCell>
        <mxCell id="h_ossI_MH9fFPqENP40c-49" value="" style="ellipse;whiteSpace=wrap;html=1;aspect=fixed;fillColor=#BB88E7;" parent="1" vertex="1">
          <mxGeometry x="1000" y="440" width="40" height="40" as="geometry" />
        </mxCell>
        <mxCell id="h_ossI_MH9fFPqENP40c-53" value="" style="ellipse;whiteSpace=wrap;html=1;aspect=fixed;fillColor=#0050ef;fontColor=#ffffff;strokeColor=#001DBC;" parent="1" vertex="1">
          <mxGeometry x="840" y="440" width="40" height="40" as="geometry" />
        </mxCell>
        <mxCell id="h_ossI_MH9fFPqENP40c-56" value="" style="ellipse;whiteSpace=wrap;html=1;aspect=fixed;fillColor=#0050ef;fontColor=#ffffff;strokeColor=#001DBC;" parent="1" vertex="1">
          <mxGeometry x="760" y="440" width="40" height="40" as="geometry" />
        </mxCell>
        <mxCell id="h_ossI_MH9fFPqENP40c-60" value="" style="endArrow=classic;html=1;rounded=0;strokeColor=default;exitX=1;exitY=0.5;exitDx=0;exitDy=0;" parent="1" source="h_ossI_MH9fFPqENP40c-62" edge="1">
          <mxGeometry width="50" height="50" relative="1" as="geometry">
            <mxPoint x="480" y="950" as="sourcePoint" />
            <mxPoint x="1000" y="915" as="targetPoint" />
          </mxGeometry>
        </mxCell>
        <mxCell id="h_ossI_MH9fFPqENP40c-62" value="&lt;div&gt;Start&lt;/div&gt;" style="rhombus;whiteSpace=wrap;html=1;" parent="1" vertex="1">
          <mxGeometry x="445" y="890" width="50" height="50" as="geometry" />
        </mxCell>
        <mxCell id="h_ossI_MH9fFPqENP40c-63" value="" style="endArrow=classic;html=1;rounded=0;edgeStyle=orthogonalEdgeStyle;curved=1;" parent="1" edge="1">
          <mxGeometry width="50" height="50" relative="1" as="geometry">
            <mxPoint x="1110" y="920" as="sourcePoint" />
            <mxPoint x="1310" y="720" as="targetPoint" />
          </mxGeometry>
        </mxCell>
        <mxCell id="h_ossI_MH9fFPqENP40c-65" value="" style="endArrow=classic;html=1;rounded=0;" parent="1" edge="1">
          <mxGeometry width="50" height="50" relative="1" as="geometry">
            <mxPoint x="930" y="400" as="sourcePoint" />
            <mxPoint x="440" y="400" as="targetPoint" />
          </mxGeometry>
        </mxCell>
        <mxCell id="h_ossI_MH9fFPqENP40c-66" value="" style="endArrow=classic;html=1;rounded=0;edgeStyle=orthogonalEdgeStyle;curved=1;" parent="1" edge="1">
          <mxGeometry width="50" height="50" relative="1" as="geometry">
            <mxPoint x="300" y="410" as="sourcePoint" />
            <mxPoint x="90" y="600" as="targetPoint" />
          </mxGeometry>
        </mxCell>
        <mxCell id="h_ossI_MH9fFPqENP40c-69" value="" style="verticalLabelPosition=bottom;verticalAlign=top;html=1;shape=mxgraph.basic.pyramid;dx1=0.4;dx2=0.6;dy1=0.73;dy2=0.53;" parent="1" vertex="1">
          <mxGeometry x="840" y="640" width="40" height="40" as="geometry" />
        </mxCell>
        <mxCell id="h_ossI_MH9fFPqENP40c-70" value="" style="verticalLabelPosition=bottom;verticalAlign=top;html=1;shape=mxgraph.basic.pyramid;dx1=0.4;dx2=0.6;dy1=0.9;dy2=0.8;" parent="1" vertex="1">
          <mxGeometry x="1370" y="110" width="50" height="50" as="geometry" />
        </mxCell>
        <mxCell id="h_ossI_MH9fFPqENP40c-71" value="&lt;div&gt;Beer Pyramid&lt;/div&gt;" style="text;html=1;align=center;verticalAlign=middle;resizable=0;points=[];autosize=1;strokeColor=none;fillColor=none;" parent="1" vertex="1">
          <mxGeometry x="1420" y="118" width="100" height="30" as="geometry" />
        </mxCell>
        <mxCell id="h_ossI_MH9fFPqENP40c-72" value="" style="verticalLabelPosition=bottom;verticalAlign=top;html=1;shape=mxgraph.basic.star;fillColor=#F0E002;" parent="1" vertex="1">
          <mxGeometry x="1370" y="180" width="50" height="55" as="geometry" />
        </mxCell>
        <mxCell id="h_ossI_MH9fFPqENP40c-73" value="Get a star" style="text;html=1;align=center;verticalAlign=middle;resizable=0;points=[];autosize=1;strokeColor=none;fillColor=none;" parent="1" vertex="1">
          <mxGeometry x="1430" y="188" width="80" height="30" as="geometry" />
        </mxCell>
        <mxCell id="h_ossI_MH9fFPqENP40c-74" value="" style="ellipse;whiteSpace=wrap;html=1;aspect=fixed;fillColor=#BB88E7;" parent="1" vertex="1">
          <mxGeometry x="1375" y="260" width="40" height="40" as="geometry" />
        </mxCell>
        <mxCell id="h_ossI_MH9fFPqENP40c-75" value="&lt;div&gt;Direction Choice&lt;/div&gt;" style="text;html=1;align=center;verticalAlign=middle;resizable=0;points=[];autosize=1;strokeColor=none;fillColor=none;" parent="1" vertex="1">
          <mxGeometry x="1430" y="260" width="110" height="30" as="geometry" />
        </mxCell>
        <mxCell id="h_ossI_MH9fFPqENP40c-77" value="" style="ellipse;whiteSpace=wrap;html=1;aspect=fixed;fillColor=#a0522d;fontColor=#ffffff;strokeColor=#6D1F00;" parent="1" vertex="1">
          <mxGeometry x="680" y="440" width="40" height="40" as="geometry" />
        </mxCell>
        <mxCell id="h_ossI_MH9fFPqENP40c-81" value="" style="ellipse;whiteSpace=wrap;html=1;aspect=fixed;fillColor=#008a00;fontColor=#ffffff;strokeColor=#005700;" parent="1" vertex="1">
          <mxGeometry x="1375" y="320" width="40" height="40" as="geometry" />
        </mxCell>
        <mxCell id="h_ossI_MH9fFPqENP40c-82" value="&lt;div&gt;Teleport&lt;/div&gt;" style="text;html=1;align=center;verticalAlign=middle;resizable=0;points=[];autosize=1;strokeColor=none;fillColor=none;" parent="1" vertex="1">
          <mxGeometry x="1440" y="325" width="70" height="30" as="geometry" />
        </mxCell>
        <mxCell id="h_ossI_MH9fFPqENP40c-83" value="" style="ellipse;whiteSpace=wrap;html=1;aspect=fixed;fillColor=#0050ef;fontColor=#ffffff;strokeColor=#001DBC;" parent="1" vertex="1">
          <mxGeometry x="1375" y="380" width="40" height="40" as="geometry" />
        </mxCell>
        <mxCell id="h_ossI_MH9fFPqENP40c-84" value="Default" style="text;html=1;align=center;verticalAlign=middle;resizable=0;points=[];autosize=1;strokeColor=none;fillColor=none;" parent="1" vertex="1">
          <mxGeometry x="1440" y="385" width="60" height="30" as="geometry" />
        </mxCell>
        <mxCell id="h_ossI_MH9fFPqENP40c-85" value="" style="ellipse;whiteSpace=wrap;html=1;aspect=fixed;fillColor=#a20025;fontColor=#ffffff;strokeColor=#6F0000;" parent="1" vertex="1">
          <mxGeometry x="1375" y="440" width="40" height="40" as="geometry" />
        </mxCell>
        <mxCell id="h_ossI_MH9fFPqENP40c-86" value="Bowser" style="text;html=1;align=center;verticalAlign=middle;resizable=0;points=[];autosize=1;strokeColor=none;fillColor=none;" parent="1" vertex="1">
          <mxGeometry x="1440" y="440" width="60" height="30" as="geometry" />
        </mxCell>
        <mxCell id="h_ossI_MH9fFPqENP40c-87" value="" style="ellipse;whiteSpace=wrap;html=1;aspect=fixed;fillColor=#1ba1e2;fontColor=#ffffff;strokeColor=#006EAF;" parent="1" vertex="1">
          <mxGeometry x="1375" y="500" width="40" height="40" as="geometry" />
        </mxCell>
        <mxCell id="h_ossI_MH9fFPqENP40c-88" value="Donkey Kong" style="text;html=1;align=center;verticalAlign=middle;resizable=0;points=[];autosize=1;strokeColor=none;fillColor=none;" parent="1" vertex="1">
          <mxGeometry x="1420" y="505" width="100" height="30" as="geometry" />
        </mxCell>
        <mxCell id="h_ossI_MH9fFPqENP40c-89" value="" style="ellipse;whiteSpace=wrap;html=1;aspect=fixed;fillColor=#d80073;fontColor=#ffffff;strokeColor=#A50040;" parent="1" vertex="1">
          <mxGeometry x="1375" y="560" width="40" height="40" as="geometry" />
        </mxCell>
        <mxCell id="h_ossI_MH9fFPqENP40c-90" value="Duel" style="text;html=1;align=center;verticalAlign=middle;resizable=0;points=[];autosize=1;strokeColor=none;fillColor=none;" parent="1" vertex="1">
          <mxGeometry x="1440" y="565" width="50" height="30" as="geometry" />
        </mxCell>
        <mxCell id="h_ossI_MH9fFPqENP40c-91" value="" style="ellipse;whiteSpace=wrap;html=1;aspect=fixed;fillColor=#e51400;fontColor=#ffffff;strokeColor=#B20000;" parent="1" vertex="1">
          <mxGeometry x="1375" y="620" width="40" height="40" as="geometry" />
        </mxCell>
        <mxCell id="h_ossI_MH9fFPqENP40c-92" value="&lt;div&gt;Bad space&lt;/div&gt;" style="text;html=1;align=center;verticalAlign=middle;resizable=0;points=[];autosize=1;strokeColor=none;fillColor=none;" parent="1" vertex="1">
          <mxGeometry x="1430" y="620" width="80" height="30" as="geometry" />
        </mxCell>
        <mxCell id="h_ossI_MH9fFPqENP40c-93" value="" style="ellipse;whiteSpace=wrap;html=1;aspect=fixed;fillColor=#a0522d;fontColor=#ffffff;strokeColor=#6D1F00;" parent="1" vertex="1">
          <mxGeometry x="1375" y="680" width="40" height="40" as="geometry" />
        </mxCell>
        <mxCell id="h_ossI_MH9fFPqENP40c-94" value="X Marks the Shot" style="text;html=1;align=center;verticalAlign=middle;resizable=0;points=[];autosize=1;strokeColor=none;fillColor=none;" parent="1" vertex="1">
          <mxGeometry x="1405" y="685" width="120" height="30" as="geometry" />
        </mxCell>
        <mxCell id="h_ossI_MH9fFPqENP40c-95" value="" style="ellipse;whiteSpace=wrap;html=1;aspect=fixed;fillColor=#b0e3e6;strokeColor=#0e8088;" parent="1" vertex="1">
          <mxGeometry x="1375" y="735" width="40" height="40" as="geometry" />
        </mxCell>
        <mxCell id="h_ossI_MH9fFPqENP40c-96" value="Water" style="text;html=1;align=center;verticalAlign=middle;resizable=0;points=[];autosize=1;strokeColor=none;fillColor=none;" parent="1" vertex="1">
          <mxGeometry x="1435" y="740" width="60" height="30" as="geometry" />
        </mxCell>
        <mxCell id="oe8s6sl0DXii0l2Wuv9c-1" value="" style="ellipse;whiteSpace=wrap;html=1;aspect=fixed;fillColor=#e51400;fontColor=#ffffff;strokeColor=#B20000;" vertex="1" parent="1">
          <mxGeometry x="1060" y="460" width="40" height="40" as="geometry" />
        </mxCell>
        <mxCell id="h_ossI_MH9fFPqENP40c-41" value="" style="ellipse;whiteSpace=wrap;html=1;aspect=fixed;fillColor=#e51400;fontColor=#ffffff;strokeColor=#B20000;" parent="1" vertex="1">
          <mxGeometry x="860" y="560" width="40" height="40" as="geometry" />
        </mxCell>
        <mxCell id="oe8s6sl0DXii0l2Wuv9c-62" value="" style="endArrow=classic;html=1;rounded=0;edgeStyle=orthogonalEdgeStyle;curved=1;" edge="1" parent="1">
          <mxGeometry width="50" height="50" relative="1" as="geometry">
            <mxPoint x="1010" y="520" as="sourcePoint" />
            <mxPoint x="910" y="650" as="targetPoint" />
          </mxGeometry>
        </mxCell>
        <mxCell id="oe8s6sl0DXii0l2Wuv9c-87" value="" style="group;flipH=1;flipV=1;" vertex="1" connectable="0" parent="1">
          <mxGeometry x="180" y="440" width="460" height="440" as="geometry" />
        </mxCell>
        <mxCell id="oe8s6sl0DXii0l2Wuv9c-66" value="" style="ellipse;whiteSpace=wrap;html=1;aspect=fixed;fillColor=#e51400;fontColor=#ffffff;strokeColor=#B20000;" vertex="1" parent="oe8s6sl0DXii0l2Wuv9c-87">
          <mxGeometry x="420" width="40" height="40" as="geometry" />
        </mxCell>
        <mxCell id="oe8s6sl0DXii0l2Wuv9c-67" value="" style="ellipse;whiteSpace=wrap;html=1;aspect=fixed;fillColor=#0050ef;fontColor=#ffffff;strokeColor=#001DBC;" vertex="1" parent="oe8s6sl0DXii0l2Wuv9c-87">
          <mxGeometry x="340" width="40" height="40" as="geometry" />
        </mxCell>
        <mxCell id="oe8s6sl0DXii0l2Wuv9c-68" value="" style="ellipse;whiteSpace=wrap;html=1;aspect=fixed;fillColor=#e51400;fontColor=#ffffff;strokeColor=#B20000;" vertex="1" parent="oe8s6sl0DXii0l2Wuv9c-87">
          <mxGeometry x="260" width="40" height="40" as="geometry" />
        </mxCell>
        <mxCell id="oe8s6sl0DXii0l2Wuv9c-69" value="" style="ellipse;whiteSpace=wrap;html=1;aspect=fixed;fillColor=#0050ef;fontColor=#ffffff;strokeColor=#001DBC;" vertex="1" parent="oe8s6sl0DXii0l2Wuv9c-87">
          <mxGeometry x="180" width="40" height="40" as="geometry" />
        </mxCell>
        <mxCell id="oe8s6sl0DXii0l2Wuv9c-70" value="" style="ellipse;whiteSpace=wrap;html=1;aspect=fixed;fillColor=#0050ef;fontColor=#ffffff;strokeColor=#001DBC;" vertex="1" parent="oe8s6sl0DXii0l2Wuv9c-87">
          <mxGeometry x="120" y="20" width="40" height="40" as="geometry" />
        </mxCell>
        <mxCell id="oe8s6sl0DXii0l2Wuv9c-71" value="" style="ellipse;whiteSpace=wrap;html=1;aspect=fixed;fillColor=#0050ef;fontColor=#ffffff;strokeColor=#001DBC;" vertex="1" parent="oe8s6sl0DXii0l2Wuv9c-87">
          <mxGeometry x="280" y="60" width="40" height="40" as="geometry" />
        </mxCell>
        <mxCell id="oe8s6sl0DXii0l2Wuv9c-72" value="" style="ellipse;whiteSpace=wrap;html=1;aspect=fixed;fillColor=#d80073;fontColor=#ffffff;strokeColor=#A50040;" vertex="1" parent="oe8s6sl0DXii0l2Wuv9c-87">
          <mxGeometry x="320" y="120" width="40" height="40" as="geometry" />
        </mxCell>
        <mxCell id="oe8s6sl0DXii0l2Wuv9c-73" value="" style="ellipse;whiteSpace=wrap;html=1;aspect=fixed;fillColor=#0050ef;fontColor=#ffffff;strokeColor=#001DBC;" vertex="1" parent="oe8s6sl0DXii0l2Wuv9c-87">
          <mxGeometry x="270" y="345" width="40" height="40" as="geometry" />
        </mxCell>
        <mxCell id="oe8s6sl0DXii0l2Wuv9c-74" value="" style="ellipse;whiteSpace=wrap;html=1;aspect=fixed;fillColor=#0050ef;fontColor=#ffffff;strokeColor=#001DBC;" vertex="1" parent="oe8s6sl0DXii0l2Wuv9c-87">
          <mxGeometry x="60" y="60" width="40" height="40" as="geometry" />
        </mxCell>
        <mxCell id="oe8s6sl0DXii0l2Wuv9c-75" value="" style="ellipse;whiteSpace=wrap;html=1;aspect=fixed;fillColor=#0050ef;fontColor=#ffffff;strokeColor=#001DBC;" vertex="1" parent="oe8s6sl0DXii0l2Wuv9c-87">
          <mxGeometry x="10" y="120" width="40" height="40" as="geometry" />
        </mxCell>
        <mxCell id="oe8s6sl0DXii0l2Wuv9c-76" value="" style="ellipse;whiteSpace=wrap;html=1;aspect=fixed;fillColor=#008a00;fontColor=#ffffff;strokeColor=#005700;" vertex="1" parent="oe8s6sl0DXii0l2Wuv9c-87">
          <mxGeometry y="200" width="40" height="40" as="geometry" />
        </mxCell>
        <mxCell id="oe8s6sl0DXii0l2Wuv9c-78" value="" style="ellipse;whiteSpace=wrap;html=1;aspect=fixed;fillColor=#0050ef;fontColor=#ffffff;strokeColor=#001DBC;" vertex="1" parent="oe8s6sl0DXii0l2Wuv9c-87">
          <mxGeometry x="60" y="340" width="40" height="40" as="geometry" />
        </mxCell>
        <mxCell id="oe8s6sl0DXii0l2Wuv9c-79" value="" style="ellipse;whiteSpace=wrap;html=1;aspect=fixed;fillColor=#BB88E7;" vertex="1" parent="oe8s6sl0DXii0l2Wuv9c-87">
          <mxGeometry x="180" y="400" width="40" height="40" as="geometry" />
        </mxCell>
        <mxCell id="oe8s6sl0DXii0l2Wuv9c-81" value="" style="ellipse;whiteSpace=wrap;html=1;aspect=fixed;fillColor=#0050ef;fontColor=#ffffff;strokeColor=#001DBC;" vertex="1" parent="oe8s6sl0DXii0l2Wuv9c-87">
          <mxGeometry x="340" y="400" width="40" height="40" as="geometry" />
        </mxCell>
        <mxCell id="oe8s6sl0DXii0l2Wuv9c-82" value="" style="ellipse;whiteSpace=wrap;html=1;aspect=fixed;fillColor=#0050ef;fontColor=#ffffff;strokeColor=#001DBC;" vertex="1" parent="oe8s6sl0DXii0l2Wuv9c-87">
          <mxGeometry x="420" y="400" width="40" height="40" as="geometry" />
        </mxCell>
        <mxCell id="oe8s6sl0DXii0l2Wuv9c-84" value="" style="ellipse;whiteSpace=wrap;html=1;aspect=fixed;fillColor=#e51400;fontColor=#ffffff;strokeColor=#B20000;" vertex="1" parent="oe8s6sl0DXii0l2Wuv9c-87">
          <mxGeometry x="120" y="380" width="40" height="40" as="geometry" />
        </mxCell>
        <mxCell id="oe8s6sl0DXii0l2Wuv9c-85" value="" style="ellipse;whiteSpace=wrap;html=1;aspect=fixed;fillColor=#e51400;fontColor=#ffffff;strokeColor=#B20000;" vertex="1" parent="oe8s6sl0DXii0l2Wuv9c-87">
          <mxGeometry x="320" y="280" width="40" height="40" as="geometry" />
        </mxCell>
        <mxCell id="oe8s6sl0DXii0l2Wuv9c-86" value="" style="endArrow=classic;html=1;rounded=0;edgeStyle=orthogonalEdgeStyle;curved=1;" edge="1" parent="oe8s6sl0DXii0l2Wuv9c-87">
          <mxGeometry width="50" height="50" relative="1" as="geometry">
            <mxPoint x="210" y="360" as="sourcePoint" />
            <mxPoint x="310" y="230" as="targetPoint" />
          </mxGeometry>
        </mxCell>
        <mxCell id="oe8s6sl0DXii0l2Wuv9c-88" value="Counter" style="rounded=1;whiteSpace=wrap;html=1;" vertex="1" parent="oe8s6sl0DXii0l2Wuv9c-87">
          <mxGeometry x="140" y="120" width="120" height="200" as="geometry" />
        </mxCell>
        <mxCell id="oe8s6sl0DXii0l2Wuv9c-89" value="" style="verticalLabelPosition=bottom;verticalAlign=top;html=1;shape=mxgraph.basic.star;fillColor=#F0E002;" vertex="1" parent="oe8s6sl0DXii0l2Wuv9c-87">
          <mxGeometry x="340" y="200" width="40" height="40" as="geometry" />
        </mxCell>
        <mxCell id="oe8s6sl0DXii0l2Wuv9c-93" value="" style="ellipse;whiteSpace=wrap;html=1;aspect=fixed;fillColor=#0050ef;fontColor=#ffffff;strokeColor=#001DBC;" vertex="1" parent="oe8s6sl0DXii0l2Wuv9c-87">
          <mxGeometry x="10" y="280" width="40" height="40" as="geometry" />
        </mxCell>
        <mxCell id="oe8s6sl0DXii0l2Wuv9c-95" value="" style="ellipse;whiteSpace=wrap;html=1;aspect=fixed;fillColor=#0050ef;fontColor=#ffffff;strokeColor=#001DBC;" vertex="1" parent="oe8s6sl0DXii0l2Wuv9c-87">
          <mxGeometry x="260" y="400" width="40" height="40" as="geometry" />
        </mxCell>
        <mxCell id="oe8s6sl0DXii0l2Wuv9c-90" value="" style="ellipse;whiteSpace=wrap;html=1;aspect=fixed;fillColor=#0050ef;fontColor=#ffffff;strokeColor=#001DBC;" vertex="1" parent="1">
          <mxGeometry x="920" y="440" width="40" height="40" as="geometry" />
        </mxCell>
        <mxCell id="oe8s6sl0DXii0l2Wuv9c-91" value="" style="ellipse;whiteSpace=wrap;html=1;aspect=fixed;fillColor=#0050ef;fontColor=#ffffff;strokeColor=#001DBC;" vertex="1" parent="1">
          <mxGeometry x="1170" y="560" width="40" height="40" as="geometry" />
        </mxCell>
      </root>
    </mxGraphModel>
  </diagram>
</mxfile>
